<svg id="Lag_1" data-name="Lag 1" xmlns="http://www.w3.org/2000/svg" viewBox="0 0 400 433.04"><defs><style>.cls-1{fill:#006c43;}</style></defs><polygon class="cls-1" points="212.31 45.54 218 33.54 248.37 33.54 242.35 45.54 212.31 45.54"/><path d="M303.56,57,298,68H269.11l5.21-11h29.24m1.62-1h-31.5l-6.15,13h31.13l6.52-13Z" transform="translate(-56 -22.96)"/><polygon class="cls-1" points="0.81 33.54 184.1 33.54 178.42 45.54 19.19 45.54 200 407.16 380.81 45.54 313.53 45.54 319.55 33.54 399.19 33.54 200 431.93 0.81 33.54"/><path d="M454.38,57,256,453.76,57.62,57h181.7l-5.21,11H74.38l.73,1.45,180,360,.89,1.79.89-1.79,180-360,.73-1.45H370.34l5.52-11h78.52M456,56H375.24l-6.52,13H436L256,429,76,69H234.74l6.16-13H56L256,456,456,56Z" transform="translate(-56 -22.96)"/><text x="-56" y="-22.96"/><polygon points="205.29 1.93 190.03 1.93 190.03 120.18 255.82 120.18 255.82 107.37 205.29 107.37 205.29 1.93"/><path d="M364.28,76.12C348,69.8,340.77,64.36,340.77,53.31c0-8.07,6.14-17.72,22.28-17.72,10.7,0,17.09,1.31,20.95,3.41l5-11c-5.26-3-13.32-5-25.42-5-23,0-38.25,13.68-38.25,32.1,0,16.67,11.93,26.67,31.23,33.51,16,6.14,22.28,12.46,22.28,23.51,0,11.93-9.12,20.18-24.74,20.18-10.52,0-18.26-2-25.1-6.26l-6.13,11.35a29.83,29.83,0,0,0,3.6,2c6.8,3.22,17.06,5.54,26.58,5.54,27.9,0,41.41-15.79,41.41-34C394.46,93.49,384.28,83.84,364.28,76.12Z" transform="translate(-56 -22.96)"/></svg>